<svg xmlns="http://www.w3.org/2000/svg" width="38" height="38" viewBox="0 0 38 38">
  <circle cx="19" cy="19" r="17" fill="#121212"/>
  <path d="M11 22c-2.2-1-3.5-3.4-3.1-5.9.3-2 1.8-3.6 3.7-4.1.4-3.1 3.4-5.3 6.4-4.8 1 .2 2 .7 2.8 1.5 2.8-1.7 6.4-.8 8.1 2 1 1.7 1.1 3.8.3 5.7 1.1 1.2 1.7 2.8 1.5 4.4-.3 2.7-2.5 4.8-5.2 5v2.4H12.6V22H11z" fill="#ffffff"/>
  <path d="M14 14.5c1.5.2 2.7 1.2 3.1 2.6M23.4 13.8c1.3.4 2.3 1.4 2.6 2.7M18.8 10.8v16" fill="none" stroke="#121212" stroke-width="1.1" stroke-linecap="round"/>
</svg>